# xmcd
# Copyright (C) 1995-1998 Ti Kan
#
# Track frame offsets:
#       150
#       17674
#       48837
#       76229
#
# Disc length: 1309 seconds
#
# Revision: 0
# Processed by: cddbd v1.5.2PL0 Copyright (c) Steve Scherf et al.
# Submitted via: CD-Import v1.0
#
DISCID=20051b04
DTITLE=Les Filles ( Errera-Wizman) Feat. Julie Leibowitch - Le Grand Popo Football Club
DYEAR=1900
DGENRE=
TTITLE0=Les Filles (Original Mix)
TTITLE1=Les Filles ( The Hacker Remix )
TTITLE2=Les Filles ( Krunk Remix )
TTITLE3=Les Filles (Shazz Remix )
EXTD=
EXTT0=
EXTT1=
EXTT2=
EXTT3=
PLAYORDER=
